<svg height="400" viewBox="0 0 600 400" width="600" xmlns="http://www.w3.org/2000/svg">
<rect fill="white" height="400" width="600" x="0" y="0"/>
<text dominant-baseline="middle" fill="#000000" font-family="Times New Roman" font-size="20" text-anchor="middle" x="315" y="30">
Umbrella histograms
</text>
<text dominant-baseline="middle" fill="#000000" font-family="Times New Roman" font-size="14" text-anchor="middle" x="315" y="376">
Distance (nm)
</text>
<text dominant-baseline="middle" fill="#000000" font-family="Times New Roman" font-size="14" text-anchor="middle" transform="rotate(-90, 18, 200)" x="18" y="200">
count
</text>
<rect fill="none" height="280" stroke="#000000" stroke-width="1.5" width="510" x="60" y="60"/>
<line stroke="#000000" stroke-width="1" x1="87.141495" x2="87.141495" y1="340" y2="335"/>
<text dominant-baseline="hanging" fill="#000000" font-family="Times New Roman" font-size="10" text-anchor="middle" x="87.141495" y="349">
8.7
</text>
<line stroke="#000000" stroke-width="1" x1="87.141495" x2="87.141495" y1="60" y2="65"/>
<line stroke="#000000" stroke-width="1" x1="124.76287" x2="124.76287" y1="340" y2="335"/>
<text dominant-baseline="hanging" fill="#000000" font-family="Times New Roman" font-size="10" text-anchor="middle" x="124.76287" y="349">
8.7
</text>
<line stroke="#000000" stroke-width="1" x1="124.76287" x2="124.76287" y1="60" y2="65"/>
<line stroke="#000000" stroke-width="1" x1="162.38425" x2="162.38425" y1="340" y2="335"/>
<text dominant-baseline="hanging" fill="#000000" font-family="Times New Roman" font-size="10" text-anchor="middle" x="162.38425" y="349">
8.7
</text>
<line stroke="#000000" stroke-width="1" x1="162.38425" x2="162.38425" y1="60" y2="65"/>
<line stroke="#000000" stroke-width="1" x1="200.00563" x2="200.00563" y1="340" y2="335"/>
<text dominant-baseline="hanging" fill="#000000" font-family="Times New Roman" font-size="10" text-anchor="middle" x="200.00563" y="349">
8.8
</text>
<line stroke="#000000" stroke-width="1" x1="200.00563" x2="200.00563" y1="60" y2="65"/>
<line stroke="#000000" stroke-width="1" x1="237.627" x2="237.627" y1="340" y2="335"/>
<text dominant-baseline="hanging" fill="#000000" font-family="Times New Roman" font-size="10" text-anchor="middle" x="237.627" y="349">
8.8
</text>
<line stroke="#000000" stroke-width="1" x1="237.627" x2="237.627" y1="60" y2="65"/>
<line stroke="#000000" stroke-width="1" x1="275.24838" x2="275.24838" y1="340" y2="335"/>
<text dominant-baseline="hanging" fill="#000000" font-family="Times New Roman" font-size="10" text-anchor="middle" x="275.24838" y="349">
8.8
</text>
<line stroke="#000000" stroke-width="1" x1="275.24838" x2="275.24838" y1="60" y2="65"/>
<line stroke="#000000" stroke-width="1" x1="312.86975" x2="312.86975" y1="340" y2="335"/>
<text dominant-baseline="hanging" fill="#000000" font-family="Times New Roman" font-size="10" text-anchor="middle" x="312.86975" y="349">
8.8
</text>
<line stroke="#000000" stroke-width="1" x1="312.86975" x2="312.86975" y1="60" y2="65"/>
<line stroke="#000000" stroke-width="1" x1="350.49112" x2="350.49112" y1="340" y2="335"/>
<text dominant-baseline="hanging" fill="#000000" font-family="Times New Roman" font-size="10" text-anchor="middle" x="350.49112" y="349">
8.8
</text>
<line stroke="#000000" stroke-width="1" x1="350.49112" x2="350.49112" y1="60" y2="65"/>
<line stroke="#000000" stroke-width="1" x1="388.11252" x2="388.11252" y1="340" y2="335"/>
<text dominant-baseline="hanging" fill="#000000" font-family="Times New Roman" font-size="10" text-anchor="middle" x="388.11252" y="349">
8.9
</text>
<line stroke="#000000" stroke-width="1" x1="388.11252" x2="388.11252" y1="60" y2="65"/>
<line stroke="#000000" stroke-width="1" x1="425.7339" x2="425.7339" y1="340" y2="335"/>
<text dominant-baseline="hanging" fill="#000000" font-family="Times New Roman" font-size="10" text-anchor="middle" x="425.7339" y="349">
8.9
</text>
<line stroke="#000000" stroke-width="1" x1="425.7339" x2="425.7339" y1="60" y2="65"/>
<line stroke="#000000" stroke-width="1" x1="463.35526" x2="463.35526" y1="340" y2="335"/>
<text dominant-baseline="hanging" fill="#000000" font-family="Times New Roman" font-size="10" text-anchor="middle" x="463.35526" y="349">
8.9
</text>
<line stroke="#000000" stroke-width="1" x1="463.35526" x2="463.35526" y1="60" y2="65"/>
<line stroke="#000000" stroke-width="1" x1="500.97665" x2="500.97665" y1="340" y2="335"/>
<text dominant-baseline="hanging" fill="#000000" font-family="Times New Roman" font-size="10" text-anchor="middle" x="500.97665" y="349">
8.9
</text>
<line stroke="#000000" stroke-width="1" x1="500.97665" x2="500.97665" y1="60" y2="65"/>
<line stroke="#000000" stroke-width="1" x1="538.598" x2="538.598" y1="340" y2="335"/>
<text dominant-baseline="hanging" fill="#000000" font-family="Times New Roman" font-size="10" text-anchor="middle" x="538.598" y="349">
8.9
</text>
<line stroke="#000000" stroke-width="1" x1="538.598" x2="538.598" y1="60" y2="65"/>
<text dominant-baseline="text-after-edge" fill="#000000" font-family="Times New Roman" font-size="10" text-anchor="start" x="63" y="57">
·10
<tspan dx="-0.2em" dy="-0.4em">
3
</tspan>
</text>
<line stroke="#000000" stroke-width="1" x1="60" x2="65" y1="340" y2="340"/>
<line stroke="#000000" stroke-width="1" x1="570" x2="565" y1="340" y2="340"/>
<text dominant-baseline="middle" fill="#000000" font-family="Times New Roman" font-size="10" text-anchor="end" x="52" y="340">
0.0
</text>
<line stroke="#000000" stroke-width="1" x1="60" x2="65" y1="259.8626" y2="259.8626"/>
<line stroke="#000000" stroke-width="1" x1="570" x2="565" y1="259.8626" y2="259.8626"/>
<text dominant-baseline="middle" fill="#000000" font-family="Times New Roman" font-size="10" text-anchor="end" x="52" y="259.8626">
1.0
</text>
<line stroke="#000000" stroke-width="1" x1="60" x2="65" y1="179.72523" y2="179.72523"/>
<line stroke="#000000" stroke-width="1" x1="570" x2="565" y1="179.72523" y2="179.72523"/>
<text dominant-baseline="middle" fill="#000000" font-family="Times New Roman" font-size="10" text-anchor="end" x="52" y="179.72523">
2.0
</text>
<line stroke="#000000" stroke-width="1" x1="60" x2="65" y1="99.587875" y2="99.587875"/>
<line stroke="#000000" stroke-width="1" x1="570" x2="565" y1="99.587875" y2="99.587875"/>
<text dominant-baseline="middle" fill="#000000" font-family="Times New Roman" font-size="10" text-anchor="end" x="52" y="99.587875">
3.0
</text>
<defs>
<clipPath id="plotAreaClip">
<rect height="280" width="510" x="60" y="60"/>
</clipPath>
</defs>
<g clip-path="url(#plotAreaClip)">
<path d="M60,340 L62.56167,340 L65.12692,340 L67.6886,340 L70.25206,340 L72.81373,340 L75.37719,340 L77.94065,340 L80.50412,340 L83.06579,339.19864 L85.62925,339.43903 L88.19092,339.03836 L90.75259,338.79794 L93.31784,335.75272 L95.87952,336.63422 L98.44298,336.95477 L101.00465,333.26846 L103.56811,333.42874 L106.13158,331.02463 L108.69504,328.13968 L111.2567,318.5232 L113.82017,310.6697 L116.381836,304.09845 L118.943504,293.92102 L121.50876,291.43674 L124.07043,283.10248 L126.633896,270.2805 L129.19556,265.6325 L131.75903,258.9811 L134.3225,256.89752 L136.88596,246.63995 L139.44763,237.9851 L142.0093,236.38237 L144.57275,212.18088 L147.13443,203.36577 L149.69968,201.60275 L152.26135,192.46709 L154.82481,181.00745 L157.38649,192.54723 L159.94995,200.40068 L162.5134,185.65541 L165.07687,185.49513 L167.63855,173.39438 L170.20021,166.90326 L172.76367,169.14711 L175.32535,167.94504 L177.8906,163.37721 L180.45227,176.03893 L183.01573,166.82312 L185.5774,170.82999 L188.14085,169.70807 L190.70432,190.86435 L193.26779,193.589 L195.82945,197.27531 L198.39113,185.49513 L200.95459,192.86778 L203.51627,207.61305 L206.08151,220.75558 L208.64319,226.68576 L211.20665,232.05495 L213.76833,229.17 L216.33179,237.5043 L218.89525,253.45163 L221.45871,258.5804 L224.02039,244.23584 L226.58205,252.7304 L229.14551,247.36119 L231.70897,245.8386 L234.27243,247.04063 L236.8341,263.94965 L239.39757,269.55923 L241.95924,268.51746 L244.5227,270.5209 L247.08617,271.162 L249.64963,275.16885 L252.2113,278.4545 L254.77298,278.85516 L257.33643,279.9771 L259.8999,277.1723 L262.46335,283.1826 L265.02502,286.14767 L267.5885,284.94562 L270.15015,278.69492 L272.71362,273.48596 L275.2771,284.86548 L277.83875,286.54837 L280.40222,276.21063 L282.96387,266.67432 L285.52734,276.29077 L288.09082,285.747 L290.6543,285.58673 L293.21594,283.74356 L295.77942,290.4751 L298.34106,298.56897 L300.90454,302.0149 L303.46802,306.1019 L306.02966,301.29364 L308.59314,302.09503 L311.1548,305.7012 L313.71826,309.5478 L316.2817,315.23755 L318.84518,312.03204 L321.40686,315.23755 L323.9703,313.55466 L326.53198,318.92386 L329.09546,320.20605 L331.6589,315.23755 L334.22058,317.56152 L336.78406,318.04236 L339.34573,320.44647 L341.90918,317.40125 L344.47266,314.2759 L347.0361,321.64853 L349.59778,318.68347 L352.16125,319.6451 L354.72293,322.44992 L357.28638,322.04922 L359.84985,327.9794 L362.41153,325.49515 L364.97498,328.29996 L367.53665,330.5438 L370.10013,334.06982 L372.66357,335.67258 L375.22705,337.0349 L377.78873,336.3137 L380.35217,339.03836 L382.91385,339.83972 L385.47552,339.83972 L388.04077,340 L390.60242,340 L393.1659,340 L395.72754,340 L398.29102,340 L400.8545,340 L403.41794,340 L405.9796,340 L408.5431,340 L411.10474,340 L413.6664,340 L416.2317,340 L418.79333,340 L421.3568,340 L423.9185,340 L426.48193,340 L429.0454,340 L431.6089,340 L434.17053,340 L436.734,340 L439.2957,340 L441.85736,340 L444.4226,340 L446.98428,340 L449.54773,340 L452.1094,340 L454.67288,340 L457.23633,340 L459.7998,340 L462.36145,340 L464.9249,340 L467.48657,340 L470.04825,340 L472.6135,340 L475.17517,340 L477.73865,340 L480.30032,340 L482.86377,340 L485.42725,340 L487.9907,340 L490.55237,340 L493.11404,340 L495.67752,340 L498.23917,340 L500.80444,340 L503.36612,340 L505.92957,340 L508.49124,340 L511.05472,340 L513.61816,340 L516.18164,340 L518.7433,340 L521.30493,340 L523.8684,340 L526.4301,340 L528.99536,340 L531.557,340 L534.1205,340 L536.6821,340 L539.2456,340 L541.8091,340 L544.37256,340 L546.9342,340 L549.49585,340 L552.0593,340 L554.6228,340 L557.1863,340 L559.7479,340 L562.3114,340 L564.87305,340 L567.4365,340 L570,340" fill="none" stroke="#000000" stroke-width="1"/>
<path d="M60,339.43903 L62.56167,339.43903 L65.12692,339.3589 L67.6886,339.83972 L70.25206,339.83972 L72.81373,338.79794 L75.37719,338.63766 L77.94065,337.99655 L80.50412,334.31024 L83.06579,334.79108 L85.62925,331.90613 L88.19092,329.10132 L90.75259,326.93762 L93.31784,324.05267 L95.87952,314.59644 L98.44298,310.74985 L101.00465,316.27933 L103.56811,304.419 L106.13158,296.00458 L108.69504,282.70178 L111.2567,270.5209 L113.82017,270.5209 L116.381836,260.98456 L118.943504,243.83514 L121.50876,233.4173 L124.07043,229.8111 L126.633896,219.79395 L129.19556,205.68974 L131.75903,205.60962 L134.3225,197.27531 L136.88596,184.5335 L139.44763,179.32455 L142.0093,181.32799 L144.57275,181.88896 L147.13443,173.87521 L149.69968,166.90326 L152.26135,169.5478 L154.82481,151.91757 L157.38649,170.10876 L159.94995,180.20607 L162.5134,197.67601 L165.07687,199.43904 L167.63855,185.09445 L170.20021,194.2301 L172.76367,183.57184 L175.32535,173.63481 L177.8906,183.57184 L180.45227,193.589 L183.01573,197.27531 L185.5774,201.44247 L188.14085,210.17744 L190.70432,203.36577 L193.26779,199.51918 L195.82945,205.3692 L198.39113,196.63423 L200.95459,199.3589 L203.51627,191.58557 L206.08151,187.01775 L208.64319,184.85405 L211.20665,189.98283 L213.76833,207.2925 L216.33179,211.45964 L218.89525,224.20149 L221.45871,231.41385 L224.02039,244.5564 L226.58205,249.84546 L229.14551,258.5804 L231.70897,265.6325 L234.27243,261.78592 L236.8341,267.7962 L239.39757,281.9004 L241.95924,281.49973 L244.5227,292.47855 L247.08617,298.00803 L249.64963,305.94162 L252.2113,312.43274 L254.77298,310.42932 L257.33643,307.8649 L259.8999,309.86835 L262.46335,306.26218 L265.02502,304.57928 L267.5885,312.43274 L270.15015,313.23413 L272.71362,313.31424 L275.2771,319.6451 L277.83875,317.96222 L280.40222,319.4047 L282.96387,323.97253 L285.52734,325.33487 L288.09082,328.4602 L290.6543,325.97595 L293.21594,320.76703 L295.77942,322.04922 L298.34106,325.1746 L300.90454,325.81567 L303.46802,325.8958 L306.02966,322.93073 L308.59314,327.73898 L311.1548,330.5438 L313.71826,326.85748 L316.2817,331.10474 L318.84518,332.86777 L321.40686,334.55066 L323.9703,334.31024 L326.53198,331.826 L329.09546,326.6972 L331.6589,326.53693 L334.22058,330.1431 L336.78406,332.78763 L339.34573,330.9445 L341.90918,331.4253 L344.47266,329.10132 L347.0361,329.90268 L349.59778,327.81912 L352.16125,324.93417 L354.72293,321.8088 L357.28638,325.57526 L359.84985,325.8958 L362.41153,326.0561 L364.97498,326.6972 L367.53665,327.178 L370.10013,328.8609 L372.66357,328.38007 L375.22705,327.89926 L377.78873,329.82254 L380.35217,330.70407 L382.91385,333.7493 L385.47552,335.27188 L388.04077,337.27533 L390.60242,337.8363 L393.1659,337.5959 L395.72754,337.35547 L398.29102,338.95822 L400.8545,339.5993 L403.41794,339.75958 L405.9796,340 L408.5431,340 L411.10474,340 L413.6664,340 L416.2317,340 L418.79333,340 L421.3568,340 L423.9185,340 L426.48193,340 L429.0454,340 L431.6089,340 L434.17053,340 L436.734,340 L439.2957,340 L441.85736,340 L444.4226,340 L446.98428,340 L449.54773,340 L452.1094,340 L454.67288,340 L457.23633,340 L459.7998,340 L462.36145,340 L464.9249,340 L467.48657,340 L470.04825,340 L472.6135,340 L475.17517,340 L477.73865,340 L480.30032,340 L482.86377,340 L485.42725,340 L487.9907,340 L490.55237,340 L493.11404,340 L495.67752,340 L498.23917,340 L500.80444,340 L503.36612,340 L505.92957,340 L508.49124,340 L511.05472,340 L513.61816,340 L516.18164,340 L518.7433,340 L521.30493,340 L523.8684,340 L526.4301,340 L528.99536,340 L531.557,340 L534.1205,340 L536.6821,340 L539.2456,340 L541.8091,340 L544.37256,340 L546.9342,340 L549.49585,340 L552.0593,340 L554.6228,340 L557.1863,340 L559.7479,340 L562.3114,340 L564.87305,340 L567.4365,340 L570,340" fill="none" stroke="#000000" stroke-width="1"/>
<path d="M60,340 L62.56167,340 L65.12692,340 L67.6886,340 L70.25206,340 L72.81373,340 L75.37719,340 L77.94065,340 L80.50412,340 L83.06579,340 L85.62925,340 L88.19092,339.3589 L90.75259,338.87808 L93.31784,338.3171 L95.87952,335.913 L98.44298,333.8294 L101.00465,334.79108 L103.56811,332.62735 L106.13158,329.6623 L108.69504,324.1328 L111.2567,324.29306 L113.82017,319.56497 L116.381836,308.10532 L118.943504,295.36346 L121.50876,284.7052 L124.07043,273.5661 L126.633896,252.9708 L129.19556,235.90155 L131.75903,218.03091 L134.3225,209.93704 L136.88596,214.02405 L139.44763,229.41042 L142.0093,217.1494 L144.57275,207.37263 L147.13443,192.22667 L149.69968,176.27933 L152.26135,184.69376 L154.82481,178.20264 L157.38649,156.40526 L159.94995,167.14368 L162.5134,174.67659 L165.07687,168.2656 L167.63855,171.39095 L170.20021,162.97653 L172.76367,172.99371 L175.32535,172.27246 L177.8906,195.59244 L180.45227,198.63766 L183.01573,213.22266 L185.5774,198.31712 L188.14085,193.10818 L190.70432,207.21237 L193.26779,231.97482 L195.82945,232.29536 L198.39113,232.13509 L200.95459,234.77963 L203.51627,247.44133 L206.08151,237.1036 L208.64319,227.72754 L211.20665,226.52548 L213.76833,220.19461 L216.33179,219.55353 L218.89525,225.80423 L221.45871,229.25015 L224.02039,224.20149 L226.58205,222.99942 L229.14551,230.05151 L231.70897,219.47339 L234.27243,231.7344 L236.8341,239.2673 L239.39757,240.9502 L241.95924,243.43445 L244.5227,248.56326 L247.08617,252.65025 L249.64963,263.54895 L252.2113,270.7613 L254.77298,267.63593 L257.33643,283.8237 L259.8999,274.2072 L262.46335,280.69833 L265.02502,275.80997 L267.5885,281.2593 L270.15015,284.2244 L272.71362,291.51688 L275.2771,297.84775 L277.83875,292.71893 L280.40222,296.16486 L282.96387,302.81625 L285.52734,305.62106 L288.09082,300.57242 L290.6543,306.66284 L293.21594,310.91013 L295.77942,308.506 L298.34106,307.7848 L300.90454,312.7533 L303.46802,311.31082 L306.02966,313.07385 L308.59314,311.63138 L311.1548,318.28278 L313.71826,322.53006 L316.2817,322.12936 L318.84518,321.72867 L321.40686,323.81226 L323.9703,314.59644 L326.53198,319.8054 L329.09546,323.8924 L331.6589,324.3732 L334.22058,323.17114 L336.78406,320.5266 L339.34573,317.40125 L341.90918,319.4047 L344.47266,320.44647 L347.0361,325.73553 L349.59778,323.73212 L352.16125,325.6554 L354.72293,320.44647 L357.28638,323.17114 L359.84985,325.415 L362.41153,324.53348 L364.97498,328.54034 L367.53665,329.02118 L370.10013,331.98627 L372.66357,334.31024 L375.22705,334.79108 L377.78873,334.6308 L380.35217,338.3171 L382.91385,338.3171 L385.47552,338.3171 L388.04077,337.27533 L390.60242,338.87808 L393.1659,338.23697 L395.72754,336.71436 L398.29102,336.71436 L400.8545,338.4774 L403.41794,339.43903 L405.9796,340 L408.5431,340 L411.10474,340 L413.6664,340 L416.2317,340 L418.79333,340 L421.3568,340 L423.9185,340 L426.48193,340 L429.0454,340 L431.6089,340 L434.17053,340 L436.734,340 L439.2957,340 L441.85736,340 L444.4226,340 L446.98428,340 L449.54773,340 L452.1094,340 L454.67288,340 L457.23633,340 L459.7998,340 L462.36145,340 L464.9249,340 L467.48657,340 L470.04825,340 L472.6135,340 L475.17517,340 L477.73865,340 L480.30032,340 L482.86377,340 L485.42725,340 L487.9907,340 L490.55237,340 L493.11404,340 L495.67752,340 L498.23917,340 L500.80444,340 L503.36612,340 L505.92957,340 L508.49124,340 L511.05472,340 L513.61816,340 L516.18164,340 L518.7433,340 L521.30493,340 L523.8684,340 L526.4301,340 L528.99536,340 L531.557,340 L534.1205,340 L536.6821,340 L539.2456,340 L541.8091,340 L544.37256,340 L546.9342,340 L549.49585,340 L552.0593,340 L554.6228,340 L557.1863,340 L559.7479,340 L562.3114,340 L564.87305,340 L567.4365,340 L570,340" fill="none" stroke="#000000" stroke-width="1"/>
<path d="M60,340 L62.56167,340 L65.12692,340 L67.6886,340 L70.25206,340 L72.81373,340 L75.37719,340 L77.94065,340 L80.50412,340 L83.06579,340 L85.62925,340 L88.19092,340 L90.75259,340 L93.31784,340 L95.87952,340 L98.44298,339.83972 L101.00465,339.67944 L103.56811,337.99655 L106.13158,336.07327 L108.69504,336.7945 L111.2567,335.35202 L113.82017,335.5123 L116.381836,331.90613 L118.943504,324.7739 L121.50876,326.6972 L124.07043,318.84372 L126.633896,308.42587 L129.19556,289.99426 L131.75903,279.41614 L134.3225,271.64282 L136.88596,254.57355 L139.44763,229.73097 L142.0093,210.97882 L144.57275,189.66228 L147.13443,155.8443 L149.69968,140.93875 L152.26135,130.52089 L154.82481,117.45851 L157.38649,103.59474 L159.94995,100.870056 L162.5134,82.2782 L165.07687,90.21179 L167.63855,101.91185 L170.20021,110.88722 L172.76367,114.413284 L175.32535,113.77217 L177.8906,122.34689 L180.45227,140.69835 L183.01573,163.5375 L185.5774,172.59302 L188.14085,179.32455 L190.70432,205.60962 L193.26779,210.7384 L195.82945,211.29938 L198.39113,230.13165 L200.95459,226.76588 L203.51627,233.89812 L206.08151,243.27419 L208.64319,261.78592 L211.20665,266.0332 L213.76833,266.9147 L216.33179,258.17975 L218.89525,255.93588 L221.45871,257.77905 L224.02039,266.83456 L226.58205,264.3503 L229.14551,259.70233 L231.70897,266.11334 L234.27243,277.49286 L236.8341,264.59073 L239.39757,264.02975 L241.95924,265.87292 L244.5227,266.51404 L247.08617,260.664 L249.64963,265.55237 L252.2113,278.85516 L254.77298,282.06067 L257.33643,285.82715 L259.8999,285.26617 L262.46335,282.1408 L265.02502,294.0813 L267.5885,295.52374 L270.15015,283.10248 L272.71362,289.67374 L275.2771,291.67715 L277.83875,289.834 L280.40222,299.37036 L282.96387,297.20663 L285.52734,303.53748 L288.09082,298.48883 L290.6543,306.82312 L293.21594,309.46765 L295.77942,310.58957 L298.34106,310.26904 L300.90454,312.91357 L303.46802,313.07385 L306.02966,313.154 L308.59314,315.39783 L311.1548,314.7567 L313.71826,312.11218 L316.2817,314.35605 L318.84518,314.0355 L321.40686,315.23755 L323.9703,319.16428 L326.53198,316.0389 L329.09546,317.96222 L331.6589,316.35947 L334.22058,317.88208 L336.78406,320.9273 L339.34573,318.20264 L341.90918,320.84717 L344.47266,320.9273 L347.0361,326.77734 L349.59778,326.61707 L352.16125,323.8924 L354.72293,323.091 L357.28638,325.81567 L359.84985,324.1328 L362.41153,326.61707 L364.97498,325.73553 L367.53665,327.5787 L370.10013,326.61707 L372.66357,331.58557 L375.22705,332.7075 L377.78873,337.1952 L380.35217,337.5959 L382.91385,338.3171 L385.47552,339.51917 L388.04077,338.87808 L390.60242,339.19864 L393.1659,338.39725 L395.72754,339.67944 L398.29102,340 L400.8545,340 L403.41794,340 L405.9796,340 L408.5431,340 L411.10474,340 L413.6664,340 L416.2317,340 L418.79333,340 L421.3568,340 L423.9185,340 L426.48193,340 L429.0454,340 L431.6089,340 L434.17053,340 L436.734,340 L439.2957,340 L441.85736,340 L444.4226,340 L446.98428,340 L449.54773,340 L452.1094,340 L454.67288,340 L457.23633,340 L459.7998,340 L462.36145,340 L464.9249,340 L467.48657,340 L470.04825,340 L472.6135,340 L475.17517,340 L477.73865,340 L480.30032,340 L482.86377,340 L485.42725,340 L487.9907,340 L490.55237,340 L493.11404,340 L495.67752,340 L498.23917,340 L500.80444,340 L503.36612,340 L505.92957,340 L508.49124,340 L511.05472,340 L513.61816,340 L516.18164,340 L518.7433,340 L521.30493,340 L523.8684,340 L526.4301,340 L528.99536,340 L531.557,340 L534.1205,340 L536.6821,340 L539.2456,340 L541.8091,340 L544.37256,340 L546.9342,340 L549.49585,340 L552.0593,340 L554.6228,340 L557.1863,340 L559.7479,340 L562.3114,340 L564.87305,340 L567.4365,340 L570,340" fill="none" stroke="#000000" stroke-width="1"/>
<path d="M60,340 L62.56167,340 L65.12692,340 L67.6886,340 L70.25206,340 L72.81373,340 L75.37719,340 L77.94065,340 L80.50412,340 L83.06579,340 L85.62925,340 L88.19092,340 L90.75259,340 L93.31784,340 L95.87952,340 L98.44298,340 L101.00465,340 L103.56811,339.83972 L106.13158,339.19864 L108.69504,339.51917 L111.2567,339.67944 L113.82017,339.3589 L116.381836,337.8363 L118.943504,336.47397 L121.50876,335.59244 L124.07043,334.79108 L126.633896,329.34174 L129.19556,320.9273 L131.75903,311.0704 L134.3225,305.3005 L136.88596,303.53748 L139.44763,299.12994 L142.0093,295.12308 L144.57275,290.15454 L147.13443,281.17917 L149.69968,268.03662 L152.26135,267.55582 L154.82481,243.59473 L157.38649,232.85632 L159.94995,203.4459 L162.5134,204.96852 L165.07687,183.25128 L167.63855,179.72523 L170.20021,166.3423 L172.76367,161.21352 L175.32535,166.98341 L177.8906,160.01144 L180.45227,149.35318 L183.01573,151.51688 L185.5774,167.70464 L188.14085,158.08815 L190.70432,147.51001 L193.26779,160.01144 L195.82945,167.38408 L198.39113,155.76418 L200.95459,154.88266 L203.51627,180.52663 L206.08151,182.85062 L208.64319,193.3486 L211.20665,192.14653 L213.76833,193.589 L216.33179,186.9376 L218.89525,206.89182 L221.45871,202.24384 L224.02039,197.91643 L226.58205,210.0973 L229.14551,208.97539 L231.70897,198.31712 L234.27243,206.17058 L236.8341,207.21237 L239.39757,209.61649 L241.95924,207.2925 L244.5227,208.41443 L247.08617,213.38293 L249.64963,230.53235 L252.2113,235.10016 L254.77298,236.30223 L257.33643,234.53922 L259.8999,252.16943 L262.46335,253.45163 L265.02502,253.29135 L267.5885,266.67432 L270.15015,272.52432 L272.71362,273.40582 L275.2771,267.7962 L277.83875,277.49286 L280.40222,282.86206 L282.96387,279.25586 L285.52734,284.78534 L288.09082,288.95248 L290.6543,300.01144 L293.21594,294.64224 L295.77942,304.8197 L298.34106,307.6245 L300.90454,311.23068 L303.46802,316.35947 L306.02966,326.2965 L308.59314,330.62393 L311.1548,327.25815 L313.71826,323.81226 L316.2817,324.93417 L318.84518,327.49857 L321.40686,329.98282 L323.9703,331.50543 L326.53198,329.82254 L329.09546,330.70407 L331.6589,330.46365 L334.22058,327.81912 L336.78406,330.46365 L339.34573,329.18146 L341.90918,331.4253 L344.47266,331.265 L347.0361,329.82254 L349.59778,330.9445 L352.16125,331.826 L354.72293,327.89926 L357.28638,326.61707 L359.84985,325.415 L362.41153,328.29996 L364.97498,326.77734 L367.53665,323.57184 L370.10013,324.53348 L372.66357,326.85748 L375.22705,332.5472 L377.78873,331.90613 L380.35217,330.5438 L382.91385,332.62735 L385.47552,332.14655 L388.04077,333.1082 L390.60242,336.47397 L393.1659,338.4774 L395.72754,338.39725 L398.29102,338.4774 L400.8545,339.19864 L403.41794,339.5993 L405.9796,339.3589 L408.5431,339.75958 L411.10474,340 L413.6664,340 L416.2317,340 L418.79333,340 L421.3568,340 L423.9185,340 L426.48193,340 L429.0454,340 L431.6089,340 L434.17053,340 L436.734,340 L439.2957,340 L441.85736,340 L444.4226,340 L446.98428,340 L449.54773,340 L452.1094,340 L454.67288,340 L457.23633,340 L459.7998,340 L462.36145,340 L464.9249,340 L467.48657,340 L470.04825,340 L472.6135,340 L475.17517,340 L477.73865,340 L480.30032,340 L482.86377,340 L485.42725,340 L487.9907,340 L490.55237,340 L493.11404,340 L495.67752,340 L498.23917,340 L500.80444,340 L503.36612,340 L505.92957,340 L508.49124,340 L511.05472,340 L513.61816,340 L516.18164,340 L518.7433,340 L521.30493,340 L523.8684,340 L526.4301,340 L528.99536,340 L531.557,340 L534.1205,340 L536.6821,340 L539.2456,340 L541.8091,340 L544.37256,340 L546.9342,340 L549.49585,340 L552.0593,340 L554.6228,340 L557.1863,340 L559.7479,340 L562.3114,340 L564.87305,340 L567.4365,340 L570,340" fill="none" stroke="#000000" stroke-width="1"/>
<path d="M60,340 L62.56167,340 L65.12692,340 L67.6886,340 L70.25206,340 L72.81373,340 L75.37719,340 L77.94065,340 L80.50412,340 L83.06579,340 L85.62925,338.23697 L88.19092,337.51575 L90.75259,337.5959 L93.31784,338.87808 L95.87952,337.67603 L98.44298,336.63422 L101.00465,334.79108 L103.56811,333.18832 L106.13158,332.7075 L108.69504,331.6657 L111.2567,324.3732 L113.82017,317.08072 L116.381836,315.07727 L118.943504,308.58615 L121.50876,298.32855 L124.07043,280.45792 L126.633896,268.838 L129.19556,251.84888 L131.75903,229.73097 L134.3225,221.15627 L136.88596,204.16714 L139.44763,198.87808 L142.0093,191.34517 L144.57275,177.32112 L147.13443,149.59358 L149.69968,143.423 L152.26135,152.15799 L154.82481,147.10934 L157.38649,154.16142 L159.94995,170.02863 L162.5134,181.24785 L165.07687,178.1225 L167.63855,187.49857 L170.20021,174.83685 L172.76367,183.09102 L175.32535,182.53006 L177.8906,182.04922 L180.45227,196.87465 L183.01573,187.89926 L185.5774,190.22324 L188.14085,209.05553 L190.70432,213.46307 L193.26779,224.68231 L195.82945,219.0727 L198.39113,224.20149 L200.95459,223.64053 L203.51627,243.83514 L206.08151,241.59131 L208.64319,240.46938 L211.20665,236.86319 L213.76833,231.17345 L216.33179,243.11392 L218.89525,247.28105 L221.45871,251.6886 L224.02039,258.34003 L226.58205,264.19003 L229.14551,271.32227 L231.70897,266.11334 L234.27243,268.838 L236.8341,263.8695 L239.39757,262.42703 L241.95924,264.1099 L244.5227,265.47223 L247.08617,265.7928 L249.64963,263.38867 L252.2113,266.35376 L254.77298,274.6079 L257.33643,284.46478 L259.8999,288.39154 L262.46335,296.08472 L265.02502,288.07098 L267.5885,286.54837 L270.15015,291.51688 L272.71362,293.60046 L275.2771,298.48883 L277.83875,307.30396 L280.40222,302.0149 L282.96387,306.74298 L285.52734,302.81625 L288.09082,299.29022 L290.6543,293.84088 L293.21594,296.32513 L295.77942,301.77448 L298.34106,297.04636 L300.90454,293.19977 L303.46802,292.79907 L306.02966,300.09158 L308.59314,302.2553 L311.1548,305.7012 L313.71826,305.7012 L316.2817,301.13336 L318.84518,292.3984 L321.40686,294.64224 L323.9703,299.4505 L326.53198,300.57242 L329.09546,309.1471 L331.6589,309.46765 L334.22058,311.9519 L336.78406,313.47452 L339.34573,318.68347 L341.90918,313.95535 L344.47266,320.04578 L347.0361,321.40814 L349.59778,321.0876 L352.16125,321.00745 L354.72293,326.13623 L357.28638,326.93762 L359.84985,321.64853 L362.41153,322.53006 L364.97498,328.54034 L367.53665,326.85748 L370.10013,331.02463 L372.66357,330.70407 L375.22705,330.86435 L377.78873,333.66916 L380.35217,333.1082 L382.91385,333.42874 L385.47552,334.39038 L388.04077,331.18488 L390.60242,331.58557 L393.1659,335.83286 L395.72754,337.5959 L398.29102,338.55753 L400.8545,339.27878 L403.41794,338.23697 L405.9796,339.75958 L408.5431,340 L411.10474,340 L413.6664,340 L416.2317,340 L418.79333,340 L421.3568,340 L423.9185,340 L426.48193,340 L429.0454,340 L431.6089,340 L434.17053,340 L436.734,340 L439.2957,340 L441.85736,340 L444.4226,340 L446.98428,340 L449.54773,340 L452.1094,340 L454.67288,340 L457.23633,340 L459.7998,340 L462.36145,340 L464.9249,340 L467.48657,340 L470.04825,340 L472.6135,340 L475.17517,340 L477.73865,340 L480.30032,340 L482.86377,340 L485.42725,340 L487.9907,340 L490.55237,340 L493.11404,340 L495.67752,340 L498.23917,340 L500.80444,340 L503.36612,340 L505.92957,340 L508.49124,340 L511.05472,340 L513.61816,340 L516.18164,340 L518.7433,340 L521.30493,340 L523.8684,340 L526.4301,340 L528.99536,340 L531.557,340 L534.1205,340 L536.6821,340 L539.2456,340 L541.8091,340 L544.37256,340 L546.9342,340 L549.49585,340 L552.0593,340 L554.6228,340 L557.1863,340 L559.7479,340 L562.3114,340 L564.87305,340 L567.4365,340 L570,340" fill="none" stroke="#000000" stroke-width="1"/>
<path d="M60,340 L62.56167,340 L65.12692,340 L67.6886,340 L70.25206,340 L72.81373,340 L75.37719,340 L77.94065,340 L80.50412,340 L83.06579,340 L85.62925,340 L88.19092,340 L90.75259,340 L93.31784,339.51917 L95.87952,338.87808 L98.44298,336.87463 L101.00465,337.27533 L103.56811,334.95135 L106.13158,329.82254 L108.69504,331.265 L111.2567,332.14655 L113.82017,324.85403 L116.381836,309.3875 L118.943504,298.8094 L121.50876,285.747 L124.07043,269.399 L126.633896,258.5804 L129.19556,238.54608 L131.75903,226.28506 L134.3225,229.65082 L136.88596,217.55008 L139.44763,203.52605 L142.0093,207.9336 L144.57275,193.10818 L147.13443,185.49513 L149.69968,190.5438 L152.26135,175.47797 L154.82481,166.26216 L157.38649,167.22382 L159.94995,168.66629 L162.5134,164.65942 L165.07687,160.89296 L167.63855,159.37035 L170.20021,176.11906 L172.76367,175.15741 L175.32535,173.31425 L177.8906,184.45335 L180.45227,189.34174 L183.01573,195.99313 L185.5774,196.47395 L188.14085,190.5438 L190.70432,204.80824 L193.26779,199.03835 L195.82945,201.52261 L198.39113,223.96109 L200.95459,219.15283 L203.51627,230.21179 L206.08151,235.581 L208.64319,241.99197 L211.20665,249.1242 L213.76833,250.96738 L216.33179,259.22153 L218.89525,237.58443 L221.45871,245.11734 L224.02039,247.04063 L226.58205,237.9851 L229.14551,242.15225 L231.70897,248.64339 L234.27243,247.36119 L236.8341,252.9708 L239.39757,251.52834 L241.95924,251.04752 L244.5227,261.46536 L247.08617,255.93588 L249.64963,259.6222 L252.2113,269.55923 L254.77298,263.14825 L257.33643,275.6497 L259.8999,277.1723 L262.46335,284.14426 L265.02502,291.1162 L267.5885,287.1093 L270.15015,296.8861 L272.71362,290.63538 L275.2771,297.5272 L277.83875,291.03607 L280.40222,292.47855 L282.96387,297.60733 L285.52734,300.89294 L288.09082,298.4087 L290.6543,300.17172 L293.21594,296.245 L295.77942,302.8964 L298.34106,295.28336 L300.90454,291.2765 L303.46802,299.53064 L306.02966,301.8546 L308.59314,304.09845 L311.1548,301.8546 L313.71826,305.7012 L316.2817,306.9834 L318.84518,311.31082 L321.40686,313.71494 L323.9703,321.328 L326.53198,323.25128 L329.09546,322.6102 L331.6589,327.01773 L334.22058,326.53693 L336.78406,324.7739 L339.34573,328.78076 L341.90918,329.90268 L344.47266,327.49857 L347.0361,327.178 L349.59778,328.21982 L352.16125,325.49515 L354.72293,328.21982 L357.28638,330.30338 L359.84985,330.9445 L362.41153,328.21982 L364.97498,330.86435 L367.53665,329.18146 L370.10013,328.78076 L372.66357,329.2616 L375.22705,331.265 L377.78873,331.265 L380.35217,329.82254 L382.91385,329.02118 L385.47552,330.46365 L388.04077,331.02463 L390.60242,332.5472 L393.1659,336.23355 L395.72754,339.19864 L398.29102,339.43903 L400.8545,338.87808 L403.41794,338.95822 L405.9796,338.95822 L408.5431,337.99655 L411.10474,338.87808 L413.6664,339.27878 L416.2317,339.3589 L418.79333,339.43903 L421.3568,338.0767 L423.9185,337.91644 L426.48193,338.3171 L429.0454,339.1185 L431.6089,340 L434.17053,340 L436.734,340 L439.2957,340 L441.85736,340 L444.4226,340 L446.98428,340 L449.54773,340 L452.1094,340 L454.67288,340 L457.23633,340 L459.7998,340 L462.36145,340 L464.9249,340 L467.48657,340 L470.04825,340 L472.6135,340 L475.17517,340 L477.73865,340 L480.30032,340 L482.86377,340 L485.42725,340 L487.9907,340 L490.55237,340 L493.11404,340 L495.67752,340 L498.23917,340 L500.80444,340 L503.36612,340 L505.92957,340 L508.49124,340 L511.05472,340 L513.61816,340 L516.18164,340 L518.7433,340 L521.30493,340 L523.8684,340 L526.4301,340 L528.99536,340 L531.557,340 L534.1205,340 L536.6821,340 L539.2456,340 L541.8091,340 L544.37256,340 L546.9342,340 L549.49585,340 L552.0593,340 L554.6228,340 L557.1863,340 L559.7479,340 L562.3114,340 L564.87305,340 L567.4365,340 L570,340" fill="none" stroke="#000000" stroke-width="1"/>
<path d="M60,340 L62.56167,340 L65.12692,340 L67.6886,340 L70.25206,340 L72.81373,340 L75.37719,340 L77.94065,340 L80.50412,340 L83.06579,340 L85.62925,340 L88.19092,340 L90.75259,338.63766 L93.31784,337.67603 L95.87952,339.51917 L98.44298,339.5993 L101.00465,339.27878 L103.56811,339.51917 L106.13158,339.75958 L108.69504,339.5993 L111.2567,338.7178 L113.82017,338.39725 L116.381836,337.75616 L118.943504,336.07327 L121.50876,334.95135 L124.07043,328.21982 L126.633896,323.17114 L129.19556,316.4396 L131.75903,316.92044 L134.3225,307.6245 L136.88596,296.72583 L139.44763,284.62506 L142.0093,283.423 L144.57275,262.10648 L147.13443,256.33658 L149.69968,239.18718 L152.26135,227.32684 L154.82481,201.2822 L157.38649,175.71837 L159.94995,173.23412 L162.5134,154.80252 L165.07687,148.39153 L167.63855,148.07097 L170.20021,139.81683 L172.76367,135.08871 L175.32535,139.49628 L177.8906,137.49284 L180.45227,145.34631 L183.01573,152.79909 L185.5774,158.24843 L188.14085,149.99428 L190.70432,149.43332 L193.26779,162.0149 L195.82945,174.91699 L198.39113,171.9519 L200.95459,179.72523 L203.51627,178.68346 L206.08151,175.71837 L208.64319,193.02805 L211.20665,215.06583 L213.76833,220.75558 L216.33179,202.56439 L218.89525,187.09789 L221.45871,185.01431 L224.02039,190.06296 L226.58205,203.4459 L229.14551,198.0767 L231.70897,211.29938 L234.27243,229.89124 L236.8341,234.85976 L239.39757,245.59818 L241.95924,249.92558 L244.5227,255.21466 L247.08617,254.33315 L249.64963,262.10648 L252.2113,266.83456 L254.77298,279.57642 L257.33643,283.58328 L259.8999,289.834 L262.46335,295.52374 L265.02502,296.72583 L267.5885,302.41556 L270.15015,303.05667 L272.71362,304.97998 L275.2771,305.3005 L277.83875,302.65598 L280.40222,306.3423 L282.96387,303.85803 L285.52734,299.9313 L288.09082,300.57242 L290.6543,305.3005 L293.21594,302.09503 L295.77942,300.65256 L298.34106,305.54092 L300.90454,304.419 L303.46802,304.33887 L306.02966,306.82312 L308.59314,306.42242 L311.1548,308.6663 L313.71826,304.97998 L316.2817,308.506 L318.84518,313.55466 L321.40686,319.8054 L323.9703,319.32455 L326.53198,318.20264 L329.09546,318.5232 L331.6589,319.8054 L334.22058,320.76703 L336.78406,320.12592 L339.34573,319.72525 L341.90918,319.88553 L344.47266,326.6972 L347.0361,328.4602 L349.59778,329.10132 L352.16125,328.54034 L354.72293,332.14655 L357.28638,333.50888 L359.84985,333.02805 L362.41153,333.26846 L364.97498,331.10474 L367.53665,332.7075 L370.10013,333.50888 L372.66357,329.2616 L375.22705,324.7739 L377.78873,323.091 L380.35217,328.29996 L382.91385,329.6623 L385.47552,334.06982 L388.04077,334.87122 L390.60242,333.9897 L393.1659,332.30682 L395.72754,333.02805 L398.29102,334.39038 L400.8545,334.39038 L403.41794,334.71094 L405.9796,334.87122 L408.5431,335.83286 L411.10474,337.35547 L413.6664,337.91644 L416.2317,338.15683 L418.79333,338.95822 L421.3568,339.5993 L423.9185,337.5959 L426.48193,339.3589 L429.0454,338.95822 L431.6089,337.91644 L434.17053,340 L436.734,340 L439.2957,340 L441.85736,340 L444.4226,340 L446.98428,340 L449.54773,340 L452.1094,340 L454.67288,340 L457.23633,340 L459.7998,340 L462.36145,340 L464.9249,340 L467.48657,340 L470.04825,340 L472.6135,340 L475.17517,340 L477.73865,340 L480.30032,340 L482.86377,340 L485.42725,340 L487.9907,340 L490.55237,340 L493.11404,340 L495.67752,340 L498.23917,340 L500.80444,340 L503.36612,340 L505.92957,340 L508.49124,340 L511.05472,340 L513.61816,340 L516.18164,340 L518.7433,340 L521.30493,340 L523.8684,340 L526.4301,340 L528.99536,340 L531.557,340 L534.1205,340 L536.6821,340 L539.2456,340 L541.8091,340 L544.37256,340 L546.9342,340 L549.49585,340 L552.0593,340 L554.6228,340 L557.1863,340 L559.7479,340 L562.3114,340 L564.87305,340 L567.4365,340 L570,340" fill="none" stroke="#000000" stroke-width="1"/>
<path d="M60,340 L62.56167,340 L65.12692,340 L67.6886,340 L70.25206,340 L72.81373,340 L75.37719,340 L77.94065,340 L80.50412,340 L83.06579,340 L85.62925,340 L88.19092,340 L90.75259,340 L93.31784,340 L95.87952,340 L98.44298,340 L101.00465,340 L103.56811,340 L106.13158,340 L108.69504,340 L111.2567,340 L113.82017,340 L116.381836,340 L118.943504,340 L121.50876,340 L124.07043,339.67944 L126.633896,339.51917 L129.19556,338.79794 L131.75903,337.0349 L134.3225,335.67258 L136.88596,334.2301 L139.44763,334.6308 L142.0093,331.74585 L144.57275,326.6972 L147.13443,319.6451 L149.69968,311.63138 L152.26135,307.46423 L154.82481,298.56897 L157.38649,279.7367 L159.94995,276.05038 L162.5134,257.29822 L165.07687,243.19405 L167.63855,234.13852 L170.20021,214.50485 L172.76367,168.98685 L175.32535,160.81282 L177.8906,152.63881 L180.45227,138.4545 L183.01573,117.85919 L185.5774,106.159134 L188.14085,85.724106 L190.70432,68.09387 L193.26779,77.63022 L195.82945,96.54265 L198.39113,102.07213 L200.95459,117.93933 L203.51627,127.9565 L206.08151,134.44763 L208.64319,128.99828 L211.20665,148.87234 L213.76833,163.45735 L216.33179,167.94504 L218.89525,185.89583 L221.45871,194.95135 L224.02039,214.66513 L226.58205,208.17401 L229.14551,202.80481 L231.70897,219.39325 L234.27243,219.55353 L236.8341,231.01317 L239.39757,248.00229 L241.95924,226.44533 L244.5227,232.6159 L247.08617,236.38237 L249.64963,238.7865 L252.2113,251.28793 L254.77298,256.41672 L257.33643,268.27704 L259.8999,277.49286 L262.46335,263.6291 L265.02502,270.1202 L267.5885,258.17975 L270.15015,260.42358 L272.71362,268.75787 L275.2771,280.77847 L277.83875,293.0395 L280.40222,287.99084 L282.96387,287.0292 L285.52734,286.54837 L288.09082,294.80252 L290.6543,287.9107 L293.21594,293.52032 L295.77942,292.8792 L298.34106,297.60733 L300.90454,301.77448 L303.46802,304.8197 L306.02966,305.62106 L308.59314,309.3875 L311.1548,306.18204 L313.71826,316.4396 L316.2817,318.28278 L318.84518,317.48138 L321.40686,315.63824 L323.9703,322.69034 L326.53198,323.8924 L329.09546,318.92386 L331.6589,314.51633 L334.22058,318.7636 L336.78406,317.7218 L339.34573,319.96567 L341.90918,322.2095 L344.47266,321.0876 L347.0361,327.09787 L349.59778,323.01086 L352.16125,322.8506 L354.72293,329.82254 L357.28638,330.7842 L359.84985,331.826 L362.41153,330.30338 L364.97498,332.38696 L367.53665,331.98627 L370.10013,329.90268 L372.66357,331.98627 L375.22705,329.42188 L377.78873,331.265 L380.35217,334.06982 L382.91385,333.02805 L385.47552,332.9479 L388.04077,334.39038 L390.60242,333.26846 L393.1659,333.42874 L395.72754,333.8294 L398.29102,331.98627 L400.8545,332.62735 L403.41794,333.42874 L405.9796,335.0315 L408.5431,336.87463 L411.10474,334.39038 L413.6664,335.35202 L416.2317,336.23355 L418.79333,337.5959 L421.3568,339.51917 L423.9185,340 L426.48193,340 L429.0454,340 L431.6089,340 L434.17053,340 L436.734,340 L439.2957,340 L441.85736,340 L444.4226,340 L446.98428,340 L449.54773,340 L452.1094,340 L454.67288,340 L457.23633,340 L459.7998,340 L462.36145,340 L464.9249,340 L467.48657,340 L470.04825,340 L472.6135,340 L475.17517,340 L477.73865,340 L480.30032,340 L482.86377,340 L485.42725,340 L487.9907,340 L490.55237,340 L493.11404,340 L495.67752,340 L498.23917,340 L500.80444,340 L503.36612,340 L505.92957,340 L508.49124,340 L511.05472,340 L513.61816,340 L516.18164,340 L518.7433,340 L521.30493,340 L523.8684,340 L526.4301,340 L528.99536,340 L531.557,340 L534.1205,340 L536.6821,340 L539.2456,340 L541.8091,340 L544.37256,340 L546.9342,340 L549.49585,340 L552.0593,340 L554.6228,340 L557.1863,340 L559.7479,340 L562.3114,340 L564.87305,340 L567.4365,340 L570,340" fill="none" stroke="#000000" stroke-width="1"/>
<path d="M60,340 L62.56167,340 L65.12692,340 L67.6886,340 L70.25206,340 L72.81373,340 L75.37719,340 L77.94065,340 L80.50412,340 L83.06579,340 L85.62925,340 L88.19092,340 L90.75259,340 L93.31784,340 L95.87952,340 L98.44298,340 L101.00465,340 L103.56811,339.67944 L106.13158,338.95822 L108.69504,339.75958 L111.2567,339.1185 L113.82017,339.67944 L116.381836,339.03836 L118.943504,337.4356 L121.50876,338.4774 L124.07043,337.35547 L126.633896,335.75272 L129.19556,333.1082 L131.75903,330.9445 L134.3225,326.37665 L136.88596,322.36978 L139.44763,319.8054 L142.0093,315.9588 L144.57275,306.50256 L147.13443,290.55524 L149.69968,283.02234 L152.26135,262.66742 L154.82481,252.00916 L157.38649,236.78305 L159.94995,207.53291 L162.5134,194.2301 L165.07687,179.08415 L167.63855,144.86548 L170.20021,136.85175 L172.76367,112.73039 L175.32535,98.70636 L177.8906,86.285065 L180.45227,81.95764 L183.01573,60 L185.5774,77.38983 L188.14085,78.912415 L190.70432,79.793915 L193.26779,89.81111 L195.82945,99.10704 L198.39113,110.40642 L200.95459,121.5455 L203.51627,147.83057 L206.08151,150.31482 L208.64319,141.98053 L211.20665,166.18202 L213.76833,178.04236 L216.33179,183.41158 L218.89525,207.9336 L221.45871,206.73154 L224.02039,220.67545 L226.58205,227.40698 L229.14551,221.31654 L231.70897,225.24329 L234.27243,241.91185 L236.8341,254.0126 L239.39757,254.09273 L241.95924,245.0372 L244.5227,242.15225 L247.08617,245.59818 L249.64963,253.45163 L252.2113,261.30508 L254.77298,270.1202 L257.33643,285.18604 L259.8999,293.76074 L262.46335,298.08813 L265.02502,302.09503 L267.5885,301.77448 L270.15015,300.01144 L272.71362,308.2656 L275.2771,311.9519 L277.83875,316.0389 L280.40222,314.11563 L282.96387,317.48138 L285.52734,317.88208 L288.09082,325.73553 L290.6543,327.89926 L293.21594,322.12936 L295.77942,327.01773 L298.34106,328.70062 L300.90454,325.25473 L303.46802,322.53006 L306.02966,319.88553 L308.59314,323.091 L311.1548,323.091 L313.71826,321.48828 L316.2817,323.17114 L318.84518,319.6451 L321.40686,324.21295 L323.9703,321.48828 L326.53198,319.004 L329.09546,320.84717 L331.6589,322.12936 L334.22058,319.32455 L336.78406,311.31082 L339.34573,313.07385 L341.90918,318.20264 L344.47266,317.56152 L347.0361,323.41156 L349.59778,320.04578 L352.16125,319.88553 L354.72293,324.61362 L357.28638,328.94104 L359.84985,330.3835 L362.41153,335.67258 L364.97498,335.913 L367.53665,334.2301 L370.10013,333.9897 L372.66357,333.42874 L375.22705,332.30682 L377.78873,335.35202 L380.35217,335.83286 L382.91385,335.19177 L385.47552,334.79108 L388.04077,334.06982 L390.60242,334.95135 L393.1659,335.0315 L395.72754,333.50888 L398.29102,331.98627 L400.8545,331.34515 L403.41794,334.47052 L405.9796,337.51575 L408.5431,336.5541 L411.10474,335.83286 L413.6664,337.1952 L416.2317,338.3171 L418.79333,339.3589 L421.3568,339.3589 L423.9185,340 L426.48193,340 L429.0454,340 L431.6089,340 L434.17053,340 L436.734,340 L439.2957,340 L441.85736,340 L444.4226,340 L446.98428,340 L449.54773,340 L452.1094,340 L454.67288,340 L457.23633,340 L459.7998,340 L462.36145,340 L464.9249,340 L467.48657,340 L470.04825,340 L472.6135,340 L475.17517,340 L477.73865,340 L480.30032,340 L482.86377,340 L485.42725,340 L487.9907,340 L490.55237,340 L493.11404,340 L495.67752,340 L498.23917,340 L500.80444,340 L503.36612,340 L505.92957,340 L508.49124,340 L511.05472,340 L513.61816,340 L516.18164,340 L518.7433,340 L521.30493,340 L523.8684,340 L526.4301,340 L528.99536,340 L531.557,340 L534.1205,340 L536.6821,340 L539.2456,340 L541.8091,340 L544.37256,340 L546.9342,340 L549.49585,340 L552.0593,340 L554.6228,340 L557.1863,340 L559.7479,340 L562.3114,340 L564.87305,340 L567.4365,340 L570,340" fill="none" stroke="#000000" stroke-width="1"/>
<path d="M60,340 L62.56167,340 L65.12692,340 L67.6886,340 L70.25206,340 L72.81373,340 L75.37719,339.83972 L77.94065,339.67944 L80.50412,338.79794 L83.06579,339.51917 L85.62925,339.43903 L88.19092,339.75958 L90.75259,339.5993 L93.31784,338.7178 L95.87952,338.4774 L98.44298,338.15683 L101.00465,337.27533 L103.56811,337.75616 L106.13158,336.23355 L108.69504,332.22668 L111.2567,331.34515 L113.82017,329.502 L116.381836,324.85403 L118.943504,319.6451 L121.50876,316.68002 L124.07043,305.0601 L126.633896,299.12994 L129.19556,291.59702 L131.75903,279.57642 L134.3225,269.31885 L136.88596,251.28793 L139.44763,242.79337 L142.0093,235.74127 L144.57275,228.60904 L147.13443,207.13222 L149.69968,196.23354 L152.26135,172.51288 L154.82481,178.3629 L157.38649,184.29308 L159.94995,171.7115 L162.5134,157.84773 L165.07687,132.12364 L167.63855,140.13737 L170.20021,141.82027 L172.76367,153.921 L175.32535,138.0538 L177.8906,139.65654 L180.45227,138.13394 L183.01573,143.50314 L185.5774,156.56555 L188.14085,151.43675 L190.70432,154.24156 L193.26779,144.2244 L195.82945,144.14426 L198.39113,158.08815 L200.95459,171.79164 L203.51627,191.98627 L206.08151,188.6205 L208.64319,203.52605 L211.20665,219.55353 L213.76833,231.41385 L216.33179,229.8111 L218.89525,244.31596 L221.45871,255.13452 L224.02039,258.42014 L226.58205,259.30167 L229.14551,266.4339 L231.70897,271.24213 L234.27243,275.4894 L236.8341,279.65656 L239.39757,278.77505 L241.95924,279.09558 L244.5227,282.3011 L247.08617,284.38464 L249.64963,293.0395 L252.2113,288.47168 L254.77298,282.78192 L257.33643,289.99426 L259.8999,280.05725 L262.46335,273.32568 L265.02502,264.27017 L267.5885,262.50714 L270.15015,258.17975 L272.71362,267.39554 L275.2771,279.25586 L277.83875,293.92102 L280.40222,286.30795 L282.96387,288.7922 L285.52734,290.95593 L288.09082,291.3566 L290.6543,299.61078 L293.21594,310.58957 L295.77942,315.87866 L298.34106,319.48483 L300.90454,324.21295 L303.46802,322.12936 L306.02966,317.80194 L308.59314,316.27933 L311.1548,325.33487 L313.71826,325.33487 L316.2817,323.01086 L318.84518,324.21295 L321.40686,323.73212 L323.9703,325.0143 L326.53198,323.4917 L329.09546,327.09787 L331.6589,330.30338 L334.22058,332.38696 L336.78406,333.66916 L339.34573,329.7424 L341.90918,325.57526 L344.47266,323.81226 L347.0361,321.16772 L349.59778,322.28964 L352.16125,322.77048 L354.72293,320.5266 L357.28638,317.32114 L359.84985,316.59988 L362.41153,315.79852 L364.97498,318.44305 L367.53665,321.0876 L370.10013,327.3383 L372.66357,331.50543 L375.22705,335.83286 L377.78873,337.99655 L380.35217,337.4356 L382.91385,336.95477 L385.47552,338.63766 L388.04077,338.15683 L390.60242,336.71436 L393.1659,336.07327 L395.72754,337.67603 L398.29102,335.59244 L400.8545,336.23355 L403.41794,336.47397 L405.9796,336.71436 L408.5431,337.11505 L411.10474,338.23697 L413.6664,337.1952 L416.2317,336.39383 L418.79333,337.35547 L421.3568,339.27878 L423.9185,340 L426.48193,340 L429.0454,340 L431.6089,340 L434.17053,340 L436.734,340 L439.2957,340 L441.85736,340 L444.4226,340 L446.98428,340 L449.54773,340 L452.1094,340 L454.67288,340 L457.23633,340 L459.7998,340 L462.36145,340 L464.9249,340 L467.48657,340 L470.04825,340 L472.6135,340 L475.17517,340 L477.73865,340 L480.30032,340 L482.86377,340 L485.42725,340 L487.9907,340 L490.55237,340 L493.11404,340 L495.67752,340 L498.23917,340 L500.80444,340 L503.36612,340 L505.92957,340 L508.49124,340 L511.05472,340 L513.61816,340 L516.18164,340 L518.7433,340 L521.30493,340 L523.8684,340 L526.4301,340 L528.99536,340 L531.557,340 L534.1205,340 L536.6821,340 L539.2456,340 L541.8091,340 L544.37256,340 L546.9342,340 L549.49585,340 L552.0593,340 L554.6228,340 L557.1863,340 L559.7479,340 L562.3114,340 L564.87305,340 L567.4365,340 L570,340" fill="none" stroke="#000000" stroke-width="1"/>
<path d="M60,340 L62.56167,340 L65.12692,340 L67.6886,340 L70.25206,340 L72.81373,340 L75.37719,340 L77.94065,340 L80.50412,340 L83.06579,340 L85.62925,340 L88.19092,340 L90.75259,340 L93.31784,340 L95.87952,340 L98.44298,340 L101.00465,340 L103.56811,340 L106.13158,340 L108.69504,339.03836 L111.2567,339.03836 L113.82017,337.91644 L116.381836,336.5541 L118.943504,333.42874 L121.50876,328.78076 L124.07043,321.64853 L126.633896,312.11218 L129.19556,305.78134 L131.75903,293.52032 L134.3225,287.18945 L136.88596,283.02234 L139.44763,275.16885 L142.0093,262.42703 L144.57275,245.8386 L147.13443,236.14197 L149.69968,223.64053 L152.26135,214.10419 L154.82481,203.4459 L157.38649,184.3732 L159.94995,171.87178 L162.5134,166.90326 L165.07687,167.14368 L167.63855,162.8964 L170.20021,144.14426 L172.76367,124.67085 L175.32535,116.1763 L177.8906,106.63995 L180.45227,128.43732 L183.01573,135.08871 L185.5774,132.36406 L188.14085,137.01202 L190.70432,142.06067 L193.26779,172.51288 L195.82945,180.20607 L198.39113,194.87122 L200.95459,197.03491 L203.51627,193.3486 L206.08151,191.58557 L208.64319,201.68288 L211.20665,209.05553 L213.76833,212.58157 L216.33179,221.55695 L218.89525,226.52548 L221.45871,231.89468 L224.02039,226.84602 L226.58205,223.64053 L229.14551,235.26044 L231.70897,244.31596 L234.27243,251.36806 L236.8341,257.77905 L239.39757,284.14426 L241.95924,278.37436 L244.5227,276.9319 L247.08617,281.0189 L249.64963,284.62506 L252.2113,284.38464 L254.77298,284.3045 L257.33643,291.19635 L259.8999,285.26617 L262.46335,287.9107 L265.02502,294.00116 L267.5885,283.02234 L270.15015,283.34286 L272.71362,288.71207 L275.2771,286.7888 L277.83875,294.48196 L280.40222,297.9279 L282.96387,294.9628 L285.52734,289.35318 L288.09082,292.23813 L290.6543,300.89294 L293.21594,300.8128 L295.77942,297.04636 L298.34106,286.7888 L300.90454,282.38123 L303.46802,288.47168 L306.02966,298.6491 L308.59314,300.01144 L311.1548,303.1368 L313.71826,302.65598 L316.2817,311.79163 L318.84518,316.4396 L321.40686,317.16086 L323.9703,318.5232 L326.53198,318.84372 L329.09546,320.6869 L331.6589,319.004 L334.22058,317.40125 L336.78406,318.1225 L339.34573,318.20264 L341.90918,317.32114 L344.47266,326.93762 L347.0361,324.29306 L349.59778,326.85748 L352.16125,324.45334 L354.72293,329.02118 L357.28638,327.25815 L359.84985,328.29996 L362.41153,327.41843 L364.97498,332.14655 L367.53665,333.50888 L370.10013,331.98627 L372.66357,333.90955 L375.22705,330.86435 L377.78873,332.14655 L380.35217,331.58557 L382.91385,329.7424 L385.47552,330.46365 L388.04077,329.42188 L390.60242,331.74585 L393.1659,333.58902 L395.72754,333.58902 L398.29102,331.02463 L400.8545,331.74585 L403.41794,334.55066 L405.9796,335.75272 L408.5431,332.78763 L411.10474,331.98627 L413.6664,333.7493 L416.2317,338.23697 L418.79333,339.19864 L421.3568,340 L423.9185,340 L426.48193,340 L429.0454,340 L431.6089,340 L434.17053,340 L436.734,340 L439.2957,340 L441.85736,340 L444.4226,340 L446.98428,340 L449.54773,340 L452.1094,340 L454.67288,340 L457.23633,340 L459.7998,340 L462.36145,340 L464.9249,340 L467.48657,340 L470.04825,340 L472.6135,340 L475.17517,340 L477.73865,340 L480.30032,340 L482.86377,340 L485.42725,340 L487.9907,340 L490.55237,340 L493.11404,340 L495.67752,340 L498.23917,340 L500.80444,340 L503.36612,340 L505.92957,340 L508.49124,340 L511.05472,340 L513.61816,340 L516.18164,340 L518.7433,340 L521.30493,340 L523.8684,340 L526.4301,340 L528.99536,340 L531.557,340 L534.1205,340 L536.6821,340 L539.2456,340 L541.8091,340 L544.37256,340 L546.9342,340 L549.49585,340 L552.0593,340 L554.6228,340 L557.1863,340 L559.7479,340 L562.3114,340 L564.87305,340 L567.4365,340 L570,340" fill="none" stroke="#000000" stroke-width="1"/>
<path d="M60,340 L62.56167,340 L65.12692,340 L67.6886,340 L70.25206,340 L72.81373,340 L75.37719,340 L77.94065,340 L80.50412,340 L83.06579,340 L85.62925,340 L88.19092,340 L90.75259,340 L93.31784,340 L95.87952,340 L98.44298,340 L101.00465,340 L103.56811,340 L106.13158,340 L108.69504,340 L111.2567,340 L113.82017,339.27878 L116.381836,337.0349 L118.943504,337.35547 L121.50876,335.59244 L124.07043,332.5472 L126.633896,330.3835 L129.19556,325.33487 L131.75903,316.51974 L134.3225,309.5478 L136.88596,304.0183 L139.44763,295.92444 L142.0093,290.15454 L144.57275,280.45792 L147.13443,260.58386 L149.69968,249.5249 L152.26135,245.99886 L154.82481,238.3858 L157.38649,226.6056 L159.94995,198.63766 L162.5134,181.64854 L165.07687,159.0498 L167.63855,150.8758 L170.20021,141.82027 L172.76367,114.57356 L175.32535,112.24957 L177.8906,120.90442 L180.45227,127.23526 L183.01573,133.16542 L185.5774,147.99084 L188.14085,139.01546 L190.70432,150.79565 L193.26779,151.11621 L195.82945,154.5621 L198.39113,165.78134 L200.95459,180.20607 L203.51627,186.53693 L206.08151,198.0767 L208.64319,204.00687 L211.20665,218.4316 L213.76833,216.58844 L216.33179,225.96451 L218.89525,236.14197 L221.45871,243.91528 L224.02039,247.28105 L226.58205,260.664 L229.14551,265.31195 L231.70897,261.38522 L234.27243,273.32568 L236.8341,268.67773 L239.39757,267.47568 L241.95924,272.76474 L244.5227,278.37436 L247.08617,284.3045 L249.64963,277.573 L252.2113,282.70178 L254.77298,270.44077 L257.33643,278.4545 L259.8999,273.40582 L262.46335,274.68805 L265.02502,274.68805 L267.5885,275.80997 L270.15015,275.97025 L272.71362,275.56955 L275.2771,271.96338 L277.83875,264.59073 L280.40222,266.51404 L282.96387,277.73325 L285.52734,262.8277 L288.09082,268.03662 L290.6543,269.79965 L293.21594,280.69833 L295.77942,278.13394 L298.34106,283.66342 L300.90454,294.16144 L303.46802,296.08472 L306.02966,293.36005 L308.59314,292.8792 L311.1548,283.26273 L313.71826,292.5587 L316.2817,302.7361 L318.84518,302.97653 L321.40686,312.67316 L323.9703,311.63138 L326.53198,311.71152 L329.09546,305.4608 L331.6589,312.51288 L334.22058,316.35947 L336.78406,319.08414 L339.34573,322.8506 L341.90918,325.415 L344.47266,326.85748 L347.0361,327.89926 L349.59778,327.01773 L352.16125,327.3383 L354.72293,325.57526 L357.28638,325.0143 L359.84985,329.502 L362.41153,328.4602 L364.97498,328.94104 L367.53665,328.38007 L370.10013,328.70062 L372.66357,325.33487 L375.22705,327.01773 L377.78873,328.8609 L380.35217,331.02463 L382.91385,331.10474 L385.47552,331.4253 L388.04077,326.77734 L390.60242,331.10474 L393.1659,329.58215 L395.72754,329.7424 L398.29102,329.90268 L400.8545,328.94104 L403.41794,325.57526 L405.9796,329.42188 L408.5431,332.30682 L411.10474,331.98627 L413.6664,334.14996 L416.2317,332.30682 L418.79333,333.7493 L421.3568,334.87122 L423.9185,335.35202 L426.48193,337.27533 L429.0454,339.03836 L431.6089,339.03836 L434.17053,338.95822 L436.734,338.23697 L439.2957,339.5993 L441.85736,338.87808 L444.4226,338.7178 L446.98428,339.3589 L449.54773,339.91986 L452.1094,339.91986 L454.67288,340 L457.23633,340 L459.7998,340 L462.36145,340 L464.9249,340 L467.48657,340 L470.04825,340 L472.6135,340 L475.17517,340 L477.73865,340 L480.30032,340 L482.86377,340 L485.42725,340 L487.9907,340 L490.55237,340 L493.11404,340 L495.67752,340 L498.23917,340 L500.80444,340 L503.36612,340 L505.92957,340 L508.49124,340 L511.05472,340 L513.61816,340 L516.18164,340 L518.7433,340 L521.30493,340 L523.8684,340 L526.4301,340 L528.99536,340 L531.557,340 L534.1205,340 L536.6821,340 L539.2456,340 L541.8091,340 L544.37256,340 L546.9342,340 L549.49585,340 L552.0593,340 L554.6228,340 L557.1863,340 L559.7479,340 L562.3114,340 L564.87305,340 L567.4365,340 L570,340" fill="none" stroke="#000000" stroke-width="1"/>
<path d="M60,340 L62.56167,340 L65.12692,340 L67.6886,340 L70.25206,340 L72.81373,340 L75.37719,340 L77.94065,340 L80.50412,340 L83.06579,340 L85.62925,340 L88.19092,340 L90.75259,340 L93.31784,340 L95.87952,340 L98.44298,340 L101.00465,340 L103.56811,340 L106.13158,340 L108.69504,340 L111.2567,340 L113.82017,340 L116.381836,340 L118.943504,340 L121.50876,340 L124.07043,340 L126.633896,340 L129.19556,340 L131.75903,339.75958 L134.3225,339.43903 L136.88596,338.55753 L139.44763,337.67603 L142.0093,336.07327 L144.57275,335.11163 L147.13443,331.90613 L149.69968,328.94104 L152.26135,323.17114 L154.82481,317.7218 L157.38649,309.70807 L159.94995,298.72925 L162.5134,296.96622 L165.07687,289.91412 L167.63855,286.30795 L170.20021,276.69147 L172.76367,258.66055 L175.32535,243.19405 L177.8906,239.2673 L180.45227,227.00629 L183.01573,215.78706 L185.5774,217.06926 L188.14085,204.80824 L190.70432,194.14996 L193.26779,188.70062 L195.82945,164.97998 L198.39113,148.31139 L200.95459,151.35661 L203.51627,125.23183 L206.08151,138.29422 L208.64319,142.54149 L211.20665,133.08528 L213.76833,140.77849 L216.33179,150.2347 L218.89525,139.57642 L221.45871,148.07097 L224.02039,154.08127 L226.58205,159.53061 L229.14551,154.16142 L231.70897,165.38065 L234.27243,179.56497 L236.8341,167.14368 L239.39757,174.83685 L241.95924,187.73898 L244.5227,190.62393 L247.08617,201.20206 L249.64963,224.36176 L252.2113,221.55695 L254.77298,225.16313 L257.33643,235.90155 L259.8999,234.53922 L262.46335,236.78305 L265.02502,241.43103 L267.5885,241.51117 L270.15015,253.29135 L272.71362,252.40985 L275.2771,266.27362 L277.83875,264.59073 L280.40222,254.09273 L282.96387,252.7304 L285.52734,257.21808 L288.09082,263.0681 L290.6543,266.11334 L293.21594,274.12708 L295.77942,273.16544 L298.34106,271.96338 L300.90454,268.27704 L303.46802,275.80997 L306.02966,288.3114 L308.59314,286.14767 L311.1548,289.5936 L313.71826,296.08472 L316.2817,294.40182 L318.84518,298.56897 L321.40686,304.33887 L323.9703,308.82657 L326.53198,318.20264 L329.09546,321.64853 L331.6589,316.1992 L334.22058,320.60675 L336.78406,321.0876 L339.34573,319.6451 L341.90918,321.48828 L344.47266,321.8088 L347.0361,322.93073 L349.59778,319.48483 L352.16125,314.99713 L354.72293,318.28278 L357.28638,313.55466 L359.84985,319.004 L362.41153,325.8958 L364.97498,325.73553 L367.53665,329.58215 L370.10013,331.58557 L372.66357,333.90955 L375.22705,332.30682 L377.78873,329.82254 L380.35217,331.265 L382.91385,330.46365 L385.47552,331.265 L388.04077,332.86777 L390.60242,334.71094 L393.1659,333.18832 L395.72754,336.87463 L398.29102,335.35202 L400.8545,336.07327 L403.41794,335.59244 L405.9796,336.63422 L408.5431,336.23355 L411.10474,337.1952 L413.6664,338.39725 L416.2317,338.4774 L418.79333,337.51575 L421.3568,339.19864 L423.9185,336.71436 L426.48193,338.23697 L429.0454,339.51917 L431.6089,340 L434.17053,340 L436.734,340 L439.2957,340 L441.85736,340 L444.4226,340 L446.98428,340 L449.54773,340 L452.1094,340 L454.67288,340 L457.23633,340 L459.7998,340 L462.36145,340 L464.9249,340 L467.48657,340 L470.04825,340 L472.6135,340 L475.17517,340 L477.73865,340 L480.30032,340 L482.86377,340 L485.42725,340 L487.9907,340 L490.55237,340 L493.11404,340 L495.67752,340 L498.23917,340 L500.80444,340 L503.36612,340 L505.92957,340 L508.49124,340 L511.05472,340 L513.61816,340 L516.18164,340 L518.7433,340 L521.30493,340 L523.8684,340 L526.4301,340 L528.99536,340 L531.557,340 L534.1205,340 L536.6821,340 L539.2456,340 L541.8091,340 L544.37256,340 L546.9342,340 L549.49585,340 L552.0593,340 L554.6228,340 L557.1863,340 L559.7479,340 L562.3114,340 L564.87305,340 L567.4365,340 L570,340" fill="none" stroke="#000000" stroke-width="1"/>
<path d="M60,340 L62.56167,340 L65.12692,340 L67.6886,340 L70.25206,340 L72.81373,340 L75.37719,340 L77.94065,340 L80.50412,340 L83.06579,340 L85.62925,340 L88.19092,340 L90.75259,340 L93.31784,340 L95.87952,340 L98.44298,340 L101.00465,340 L103.56811,340 L106.13158,340 L108.69504,339.83972 L111.2567,339.27878 L113.82017,338.63766 L116.381836,338.0767 L118.943504,337.1952 L121.50876,335.19177 L124.07043,334.14996 L126.633896,333.9897 L129.19556,332.5472 L131.75903,328.94104 L134.3225,324.1328 L136.88596,318.20264 L139.44763,304.65942 L142.0093,294.48196 L144.57275,289.35318 L147.13443,281.9004 L149.69968,274.92847 L152.26135,264.59073 L154.82481,250.64682 L157.38649,233.25702 L159.94995,217.22952 L162.5134,190.86435 L165.07687,157.04636 L167.63855,137.57298 L170.20021,137.57298 L172.76367,108.08243 L175.32535,108.24271 L177.8906,108.16257 L180.45227,102.472824 L183.01573,78.51175 L185.5774,99.50774 L188.14085,105.27762 L190.70432,94.69949 L193.26779,117.618774 L195.82945,112.73039 L198.39113,116.49686 L200.95459,140.53806 L203.51627,140.77849 L206.08151,171.9519 L208.64319,164.97998 L211.20665,169.46765 L213.76833,186.29651 L216.33179,210.498 L218.89525,231.09329 L221.45871,237.66458 L224.02039,219.9542 L226.58205,238.22552 L229.14551,247.68173 L231.70897,249.1242 L234.27243,257.13794 L236.8341,261.46536 L239.39757,265.7928 L241.95924,273.16544 L244.5227,273.0853 L247.08617,269.55923 L249.64963,275.40927 L252.2113,276.45105 L254.77298,273.80652 L257.33643,278.21408 L259.8999,287.42987 L262.46335,290.39496 L265.02502,288.5518 L267.5885,290.31482 L270.15015,293.11963 L272.71362,294.00116 L275.2771,296.72583 L277.83875,291.43674 L280.40222,289.99426 L282.96387,298.00803 L285.52734,306.3423 L288.09082,306.50256 L290.6543,305.54092 L293.21594,303.85803 L295.77942,303.1368 L298.34106,307.8649 L300.90454,309.46765 L303.46802,304.33887 L306.02966,310.42932 L308.59314,317.64166 L311.1548,318.04236 L313.71826,321.40814 L316.2817,312.83344 L318.84518,316.0389 L321.40686,313.6348 L323.9703,317.80194 L326.53198,318.84372 L329.09546,316.4396 L331.6589,313.8752 L334.22058,317.08072 L336.78406,318.1225 L339.34573,320.44647 L341.90918,323.57184 L344.47266,319.6451 L347.0361,318.5232 L349.59778,322.6102 L352.16125,324.7739 L354.72293,324.53348 L357.28638,326.85748 L359.84985,328.4602 L362.41153,323.091 L364.97498,327.01773 L367.53665,327.89926 L370.10013,327.9794 L372.66357,333.1082 L375.22705,334.2301 L377.78873,334.95135 L380.35217,334.47052 L382.91385,334.31024 L385.47552,333.8294 L388.04077,331.6657 L390.60242,332.0664 L393.1659,336.23355 L395.72754,336.87463 L398.29102,337.35547 L400.8545,336.3137 L403.41794,335.75272 L405.9796,335.75272 L408.5431,337.99655 L411.10474,337.1952 L413.6664,336.07327 L416.2317,337.51575 L418.79333,338.79794 L421.3568,339.03836 L423.9185,338.55753 L426.48193,337.5959 L429.0454,335.27188 L431.6089,335.43216 L434.17053,336.47397 L436.734,339.3589 L439.2957,338.39725 L441.85736,339.19864 L444.4226,339.83972 L446.98428,339.83972 L449.54773,339.27878 L452.1094,339.75958 L454.67288,339.83972 L457.23633,339.83972 L459.7998,339.3589 L462.36145,339.51917 L464.9249,339.5993 L467.48657,339.19864 L470.04825,339.5993 L472.6135,339.03836 L475.17517,339.51917 L477.73865,339.83972 L480.30032,338.79794 L482.86377,336.3137 L485.42725,335.27188 L487.9907,335.19177 L490.55237,337.91644 L493.11404,338.39725 L495.67752,338.63766 L498.23917,339.19864 L500.80444,338.63766 L503.36612,339.43903 L505.92957,339.27878 L508.49124,339.43903 L511.05472,339.19864 L513.61816,339.83972 L516.18164,339.83972 L518.7433,339.75958 L521.30493,339.83972 L523.8684,339.75958 L526.4301,339.83972 L528.99536,339.83972 L531.557,339.91986 L534.1205,339.51917 L536.6821,339.5993 L539.2456,339.5993 L541.8091,338.79794 L544.37256,338.63766 L546.9342,339.67944 L549.49585,339.67944 L552.0593,339.3589 L554.6228,339.83972 L557.1863,339.75958 L559.7479,339.75958 L562.3114,339.27878 L564.87305,338.4774 L567.4365,339.3589 L570,339.5993" fill="none" stroke="#000000" stroke-width="1"/>
<path d="M60,340 L62.56167,340 L65.12692,340 L67.6886,340 L70.25206,340 L72.81373,340 L75.37719,340 L77.94065,340 L80.50412,340 L83.06579,340 L85.62925,340 L88.19092,340 L90.75259,340 L93.31784,340 L95.87952,340 L98.44298,340 L101.00465,340 L103.56811,340 L106.13158,340 L108.69504,340 L111.2567,340 L113.82017,340 L116.381836,339.3589 L118.943504,338.7178 L121.50876,335.83286 L124.07043,333.18832 L126.633896,332.14655 L129.19556,333.1082 L131.75903,324.53348 L134.3225,322.44992 L136.88596,323.01086 L139.44763,317.40125 L142.0093,308.2656 L144.57275,312.11218 L147.13443,301.8546 L149.69968,300.8128 L152.26135,285.66687 L154.82481,280.8586 L157.38649,263.8695 L159.94995,249.20435 L162.5134,228.04808 L165.07687,219.71379 L167.63855,215.78706 L170.20021,219.23297 L172.76367,198.55753 L175.32535,184.45335 L177.8906,163.61763 L180.45227,161.37378 L183.01573,164.33887 L185.5774,154.48196 L188.14085,150.8758 L190.70432,149.1929 L193.26779,160.65256 L195.82945,160.01144 L198.39113,152.71895 L200.95459,175.71837 L203.51627,180.68689 L206.08151,173.87521 L208.64319,169.38751 L211.20665,166.82312 L213.76833,166.02176 L216.33179,151.19633 L218.89525,161.29364 L221.45871,180.36633 L224.02039,193.26845 L226.58205,193.9897 L229.14551,207.9336 L231.70897,187.17802 L234.27243,200.40068 L236.8341,219.31311 L239.39757,236.94333 L241.95924,231.17345 L244.5227,242.23239 L247.08617,242.47281 L249.64963,247.28105 L252.2113,254.97424 L254.77298,274.04694 L257.33643,278.77505 L259.8999,277.01202 L262.46335,276.45105 L265.02502,275.56955 L267.5885,277.41272 L270.15015,284.14426 L272.71362,290.15454 L275.2771,291.51688 L277.83875,286.6285 L280.40222,281.98053 L282.96387,286.70865 L285.52734,297.04636 L288.09082,303.21695 L290.6543,295.28336 L293.21594,290.23468 L295.77942,286.54837 L298.34106,288.87234 L300.90454,291.03607 L303.46802,287.9107 L306.02966,295.68402 L308.59314,298.72925 L311.1548,295.60388 L313.71826,293.76074 L316.2817,296.56555 L318.84518,296.245 L321.40686,299.77103 L323.9703,303.53748 L326.53198,308.82657 L329.09546,305.94162 L331.6589,305.0601 L334.22058,298.32855 L336.78406,301.05322 L339.34573,304.1786 L341.90918,312.7533 L344.47266,312.83344 L347.0361,311.23068 L349.59778,311.0704 L352.16125,319.56497 L354.72293,320.84717 L357.28638,322.2095 L359.84985,325.97595 L362.41153,326.77734 L364.97498,330.9445 L367.53665,330.1431 L370.10013,331.58557 L372.66357,328.54034 L375.22705,325.0143 L377.78873,324.21295 L380.35217,325.33487 L382.91385,325.49515 L385.47552,325.1746 L388.04077,327.09787 L390.60242,328.70062 L393.1659,329.34174 L395.72754,329.18146 L398.29102,331.98627 L400.8545,329.7424 L403.41794,333.3486 L405.9796,331.74585 L408.5431,333.18832 L411.10474,335.43216 L413.6664,337.0349 L416.2317,332.9479 L418.79333,334.39038 L421.3568,337.75616 L423.9185,338.55753 L426.48193,336.87463 L429.0454,337.35547 L431.6089,338.3171 L434.17053,339.27878 L436.734,339.83972 L439.2957,339.5993 L441.85736,339.83972 L444.4226,339.75958 L446.98428,339.91986 L449.54773,339.75958 L452.1094,339.91986 L454.67288,339.51917 L457.23633,339.5993 L459.7998,339.83972 L462.36145,339.75958 L464.9249,339.91986 L467.48657,339.83972 L470.04825,339.67944 L472.6135,339.51917 L475.17517,339.83972 L477.73865,339.67944 L480.30032,339.91986 L482.86377,339.51917 L485.42725,339.43903 L487.9907,339.03836 L490.55237,339.83972 L493.11404,339.03836 L495.67752,339.1185 L498.23917,338.87808 L500.80444,339.75958 L503.36612,339.75958 L505.92957,339.83972 L508.49124,339.3589 L511.05472,339.75958 L513.61816,339.75958 L516.18164,339.75958 L518.7433,340 L521.30493,339.83972 L523.8684,338.15683 L526.4301,338.55753 L528.99536,338.23697 L531.557,339.19864 L534.1205,339.83972 L536.6821,340 L539.2456,340 L541.8091,340 L544.37256,340 L546.9342,340 L549.49585,340 L552.0593,340 L554.6228,340 L557.1863,340 L559.7479,340 L562.3114,340 L564.87305,340 L567.4365,340 L570,340" fill="none" stroke="#000000" stroke-width="1"/>
</g>
</svg>